<?xml version="1.0" standalone="no"?>
<!DOCTYPE svg PUBLIC "-//W3C//DTD SVG 20010904//EN"
 "http://www.w3.org/TR/2001/REC-SVG-20010904/DTD/svg10.dtd">
<svg version="1.0" xmlns="http://www.w3.org/2000/svg"
 width="700.000000pt" height="700.000000pt" viewBox="0 0 700.000000 700.000000"
 preserveAspectRatio="xMidYMid meet">
<metadata>
Created by potrace 1.14, written by Peter Selinger 2001-2017
</metadata>
<g transform="translate(0.000000,700.000000) scale(0.100000,-0.100000)"
fill="#000000" stroke="none">
<path d="M3405 6986 c-16 -7 -39 -22 -51 -32 -17 -16 -125 -184 -184 -289 -31
-55 -323 -532 -404 -660 -134 -212 -428 -634 -481 -691 -5 -6 -21 -26 -35 -44
-14 -18 -43 -56 -66 -84 -22 -28 -69 -89 -104 -136 -35 -47 -66 -87 -70 -90
-3 -3 -120 -158 -261 -345 -298 -397 -393 -537 -597 -870 -56 -92 -67 -110
-119 -205 -41 -73 -153 -297 -153 -304 0 -4 -9 -25 -19 -49 -42 -90 -97 -277
-115 -387 -3 -19 -8 -46 -11 -60 -22 -109 -22 -392 0 -493 2 -12 7 -39 10 -60
16 -115 74 -297 132 -412 83 -166 187 -292 332 -401 81 -60 272 -164 303 -164
8 0 18 -4 24 -9 7 -7 97 -37 139 -47 6 -1 37 -9 70 -17 33 -9 83 -19 110 -23
28 -3 52 -8 56 -9 10 -7 148 -17 247 -19 279 -5 512 84 707 270 31 30 45 39
40 25 -3 -10 -8 -30 -10 -42 -12 -60 -76 -227 -139 -364 -18 -38 -46 -99 -62
-135 -42 -96 -140 -281 -176 -332 -10 -14 -18 -31 -18 -36 0 -6 -4 -12 -9 -14
-17 -6 -104 -181 -116 -232 -22 -94 16 -170 103 -203 41 -16 114 -17 871 -17
781 -1 1134 5 1191 20 38 10 88 51 107 87 32 62 22 114 -41 228 -86 154 -117
209 -148 264 -147 261 -247 472 -307 654 -23 69 -40 126 -38 128 2 1 28 -18
58 -43 74 -62 78 -65 134 -102 90 -60 228 -115 315 -127 97 -13 156 -18 215
-18 73 -1 235 10 282 18 16 3 42 7 58 9 132 19 287 68 429 136 250 120 474
358 569 604 25 66 66 194 72 226 70 357 42 702 -81 1021 -58 151 -141 310
-354 676 -39 66 -203 314 -297 447 -99 141 -370 507 -382 516 -4 3 -24 30 -46
60 -22 30 -42 57 -45 60 -3 3 -73 93 -156 200 -82 107 -154 202 -161 210 -45
56 -215 288 -295 401 -87 123 -386 569 -398 594 -3 6 -53 82 -111 170 -58 88
-128 196 -156 240 -195 305 -192 302 -280 311 -30 3 -60 -1 -78 -10z"/>
</g>
</svg>
